# xmcd CD database file
#
# Track frame offsets:
#	150
#	18662
#	32771
#	50052
#	67586
#	83654
#	97033
#	120837
#	135601
#	150897
#
# Disc length: 2235 seconds
#
# Revision: 0
# Processed by: cddbd v1.4PL0 Copyright (c) Steve Scherf et al.
# Submitted via: CDex 1.40Release
#
DISCID=6f08b90a
DTITLE=jay begaye - round dance in beauty
DYEAR=2000
DGENRE=Native American
TTITLE0=hush my darling
TTITLE1=children's prayer
TTITLE2=the touch of your hand
TTITLE3=summer of '83 blues
TTITLE4=the twins
TTITLE5=high country
TTITLE6=ktnn special
TTITLE7=sunset flower
TTITLE8=sunshine beauty
TTITLE9=oregon trail love song
EXTD=YEAR: 2000 ID3G: 64
EXTT0=
EXTT1=
EXTT2=
EXTT3=
EXTT4=
EXTT5=
EXTT6=
EXTT7=
EXTT8=
EXTT9=
PLAYORDER=
